<svg xmlns="http://www.w3.org/2000/svg" width="200.007" height="48" viewBox="0 0 200.007 48"><g transform="translate(7247.591 5248.717)"><path d="M-15.613-22.256a7.148,7.148,0,0,1,7.146-7.151,7.151,7.151,0,0,1,7.146,7.151,7.145,7.145,0,0,1-7.146,7.14,7.142,7.142,0,0,1-7.146-7.14m29.147-8.13-4.85-2.8a5.983,5.983,0,0,0-2.9-.751v-6.374a3.292,3.292,0,0,0-4.441-3.248l-5.414,1.451a5.955,5.955,0,0,0-2.586,1.518l-4.5-4.508a3.3,3.3,0,0,0-5.441.845L-19.4-39.4a5.9,5.9,0,0,0-.757,2.9h-6.374a3.29,3.29,0,0,0-3.249,4.44l1.451,5.41a5.872,5.872,0,0,0,1.523,2.58l-4.508,4.508a3.294,3.294,0,0,0,.839,5.441l4.855,2.8a5.994,5.994,0,0,0,3.275.742v6.524A3.29,3.29,0,0,0-17.9-.8l5.41-1.45a5.945,5.945,0,0,0,2.627-1.56L-5.545.8C-3.814,2.534-1.3,1.943-.032-.26l2.8-4.855a5.939,5.939,0,0,0,.751-2.959H9.741a3.29,3.29,0,0,0,3.249-4.44l-1.451-5.41a5.9,5.9,0,0,0-1.56-2.627l4.394-4.394a3.292,3.292,0,0,0-.839-5.441" transform="translate(-7215.187 -5202.527)" fill="#fff"/><path d="M-15.708-4.153A2.3,2.3,0,0,0-17.739-6.5h-9.208a2.044,2.044,0,0,0-2.021,2.052v7a1.929,1.929,0,0,0,2.021,2.093h13.623V7H-28.133A4.184,4.184,0,0,1-32.6,2.552v-7A4.13,4.13,0,0,1-28.133-8.62h11.265A4.392,4.392,0,0,1-12.4-4.153,4.345,4.345,0,0,1-16.868.515h-10.5V-1.63h9.633a2.459,2.459,0,0,0,2.031-2.524" transform="translate(-7157.218 -5223.946)" fill="#f39200"/><path d="M-15.814,0h2.933V3.114a3.731,3.731,0,0,1-3.938,3.938H-28.887a3.605,3.605,0,0,1-3.933-3.7V0h2.762V3.731a.763.763,0,0,0,.834.8h12.607a.765.765,0,0,0,.8-.834Z" transform="translate(-7133.835 -5232.571)" fill="#f39200"/><path d="M-18.541-3.445V.307h-2.767V-3.936a.758.758,0,0,0-.834-.8H-34.749a.76.76,0,0,0-.8.834V.307L-38.48.344V-3.211a3.728,3.728,0,0,1,3.938-3.938h12.068a3.605,3.605,0,0,1,3.933,3.7" transform="translate(-7128.176 -5217.219)" fill="#f39200"/><path d="M-18.093-4.12c0,2.638-1.306,4.778-4.591,4.778h-9.529a1.922,1.922,0,0,0-1.881,2.124V7.114H-37.55V2.89c0-2.637,1.653-4.555,4-4.555h9.928c1.456,0,2.031-1.114,2.031-2.456a2.2,2.2,0,0,0-2.031-2.285H-37.55V-8.551h14.866c3.285,0,4.591,2.109,4.591,4.431" transform="translate(-7104.669 -5224.031)" fill="#f39200"/><path d="M-4.279,0H6.758V2.239H-3.206c-1.254,0-1.788.891-1.788,2.119V15.644H-8.88V4.358C-8.88,1.881-7.382,0-4.279,0" transform="translate(-7111.585 -5232.562)" fill="#f39200"/><path d="M-36.383-2.318h-7.41a1.864,1.864,0,0,0-1.814,2.1v6.8c0,2.612-1.316,4.244-4.575,4.244H-71.038A4.185,4.185,0,0,1-75.51,6.377v-7a4.132,4.132,0,0,1,4.472-4.176h11.265A4.388,4.388,0,0,1-55.306-.328,4.341,4.341,0,0,1-59.773,4.34H-70.282V2.2h9.633A2.458,2.458,0,0,0-58.612-.328a2.3,2.3,0,0,0-2.036-2.343h-9.208A2.04,2.04,0,0,0-71.872-.618v7A1.925,1.925,0,0,0-69.857,8.47h13.628v.006h5.151c1.254,0,1.788-.777,1.788-2.068V-.561c0-2.28,1.321-4.25,4.56-4.25h8.348Z" transform="translate(-7027.379 -5227.771)" fill="#f39200"/><path d="M-20.723,0V2.493h-7.4a1.863,1.863,0,0,0-1.814,2.1v6.8c0,2.612-1.316,4.244-4.581,4.244H-43.01V13.317h7.6c1.249,0,1.788-.808,1.788-2.1V4.249C-33.626,1.97-32.31,0-29.066,0Z" transform="translate(-7026.861 -5232.582)" fill="#f39200"/><path d="M-18.093-4.12c0,2.638-1.306,4.778-4.591,4.778h-9.529a1.922,1.922,0,0,0-1.881,2.124V7.114H-37.55V2.89c0-2.637,1.653-4.555,4-4.555h9.928c1.456,0,2.031-1.114,2.031-2.456a2.2,2.2,0,0,0-2.031-2.285H-37.55V-8.551h14.866c3.285,0,4.591,2.109,4.591,4.431" transform="translate(-7104.669 -5224.031)" fill="#bb0e0c"/><path d="M-14.542,0V2.239h-9.964c-1.254,0-1.788.891-1.788,2.119V15.644H-30.18V4.358c0-2.477,1.5-4.358,4.6-4.358Z" transform="translate(-7090.286 -5232.562)" fill="#bb0e0c"/><path d="M-36.383,0V2.493h-7.41a1.863,1.863,0,0,0-1.814,2.1v6.8c0,2.612-1.316,4.244-4.575,4.244H-71.038a4.185,4.185,0,0,1-4.472-4.451v-7A4.132,4.132,0,0,1-71.038.016h11.265a4.388,4.388,0,0,1,4.467,4.467,4.341,4.341,0,0,1-4.467,4.669H-70.282V7.006h9.633a2.459,2.459,0,0,0,2.036-2.524A2.3,2.3,0,0,0-60.649,2.14h-9.208a2.04,2.04,0,0,0-2.016,2.052v7a1.925,1.925,0,0,0,2.016,2.093h13.628v.006h5.151c1.254,0,1.788-.777,1.788-2.068V4.249C-49.29,1.97-47.969,0-44.731,0Z" transform="translate(-7027.379 -5232.582)" fill="#bb0e0c"/><path d="M-20.723,0V2.493h-7.4a1.863,1.863,0,0,0-1.814,2.1v6.8c0,2.612-1.316,4.244-4.581,4.244H-43.01V13.317h7.6c1.249,0,1.788-.808,1.788-2.1V4.249C-33.626,1.97-32.31,0-29.066,0Z" transform="translate(-7026.861 -5232.582)" fill="#bb0e0c"/><path d="M-18.541,0V3.114a3.731,3.731,0,0,1-3.938,3.938H-34.547a3.605,3.605,0,0,1-3.933-3.7V0h2.762V3.731a.763.763,0,0,0,.834.8h12.607a.765.765,0,0,0,.8-.834V0Z" transform="translate(-7128.176 -5232.571)" fill="#bb0e0c"/><path d="M-18.541-3.445V.307h-2.767V-3.936a.758.758,0,0,0-.834-.8H-34.749a.76.76,0,0,0-.8.834V.307L-38.48.344V-3.211a3.728,3.728,0,0,1,3.938-3.938h12.068a3.605,3.605,0,0,1,3.933,3.7" transform="translate(-7128.176 -5217.219)" fill="#bb0e0c"/><path d="M-5.257-12.335H8.366v2.358H-6.443a4.184,4.184,0,0,1-4.467-4.451v-7A4.13,4.13,0,0,1-6.443-25.6H4.822a4.393,4.393,0,0,1,4.472,4.467,4.345,4.345,0,0,1-4.472,4.668h-10.5v-2.145H3.952a2.459,2.459,0,0,0,2.031-2.524,2.3,2.3,0,0,0-2.031-2.343H-5.257a2.044,2.044,0,0,0-2.021,2.052v7a1.929,1.929,0,0,0,2.021,2.093" transform="translate(-7178.908 -5206.967)" fill="#bb0e0c"/><path d="M-41.015-18.034-45.6-13.448l-2.57.021,6.234-6.213.777.451a.661.661,0,0,1,.145,1.155m-2.648,15.6h-6.488l-1.834-1.8,8.8.016.228.876c.155.575-.14.913-.71.913m-8.7,3.772-1.871,3.218-6.928-6.927.005-1.172a9.907,9.907,0,0,0,4.27-.995l4.373,4.373a1.2,1.2,0,0,1,.15,1.5m-3.052,5.244a.662.662,0,0,1-1.156.14l-4.586-4.586-.021-2.57L-54.964,5.8ZM-68.333-13.495a7.148,7.148,0,0,1,7.146-7.151,7.151,7.151,0,0,1,7.146,7.151,7.145,7.145,0,0,1-7.146,7.14,7.142,7.142,0,0,1-7.146-7.14m3.9,15.566a1.2,1.2,0,0,1-.959,1.166l-3.6.948V-5.608l.834-.823a9.975,9.975,0,0,0,3.72,2.316ZM-74.437-4.774a1.2,1.2,0,0,1-1.5.145L-79.158-6.5l6.928-6.923,1.171.005a9.963,9.963,0,0,0,.995,4.265Zm4.073,9.327-.886.233a.661.661,0,0,1-.917-.715V-2.416l1.8-1.834ZM-81.184-7.681a.662.662,0,0,1-.14-1.156l4.586-4.581,2.575-.021L-80.4-7.225Zm2.508-16.753h6.488l1.834,1.809h-8.8l-.233-.892a.662.662,0,0,1,.715-.917m10.5,4.021a9.955,9.955,0,0,0-2.316,3.72h-6.182a1.2,1.2,0,0,1-1.171-.959l-.948-3.6H-69Zm-1.8-7.793,1.871-3.213,6.928,6.923-.005,1.177a9.851,9.851,0,0,0-4.27.995L-69.826-26.7a1.2,1.2,0,0,1-.15-1.5m3.052-5.238a.663.663,0,0,1,1.156-.146L-61.182-29l.021,2.571-6.218-6.234Zm9.016,4.508a1.2,1.2,0,0,1,.959-1.166l3.6-.953v9.794l-.834.829a9.918,9.918,0,0,0-3.72-2.316Zm12.239,18.763a1.2,1.2,0,0,1,1.171.959l.948,3.6h-9.793l-.829-.834a9.827,9.827,0,0,0,2.316-3.721ZM-47.9-22.092a1.211,1.211,0,0,1,1.5-.15l3.218,1.876-6.928,6.923-1.171,0a10,10,0,0,0-.995-4.27Zm-4.073-9.332.886-.227a.661.661,0,0,1,.917.715v6.487l-1.8,1.834Zm12.789,9.8-4.85-2.8a5.977,5.977,0,0,0-2.9-.751v-6.374A3.292,3.292,0,0,0-51.379-34.8l-5.415,1.45a5.957,5.957,0,0,0-2.586,1.518l-4.5-4.508a3.3,3.3,0,0,0-5.441.845l-2.8,4.855a5.9,5.9,0,0,0-.757,2.9h-6.374A3.29,3.29,0,0,0-82.5-23.3l1.451,5.41a5.873,5.873,0,0,0,1.523,2.581L-84.034-10.8a3.294,3.294,0,0,0,.839,5.441l4.855,2.8a5.993,5.993,0,0,0,3.275.742V4.709a3.29,3.29,0,0,0,4.441,3.248l5.41-1.451a5.938,5.938,0,0,0,2.627-1.559l4.322,4.611c1.731,1.736,4.244,1.145,5.513-1.057l2.8-4.855A5.939,5.939,0,0,0-49.2.687h6.218a3.29,3.29,0,0,0,3.249-4.44l-1.451-5.41a5.9,5.9,0,0,0-1.56-2.627l4.394-4.395a3.292,3.292,0,0,0-.839-5.441" transform="translate(-7162.467 -5211.288)" fill="#bb0e0c" fill-rule="evenodd"/></g></svg>