<?xml version="1.0" standalone="no"?>
<!DOCTYPE svg PUBLIC "-//W3C//DTD SVG 20010904//EN"
 "http://www.w3.org/TR/2001/REC-SVG-20010904/DTD/svg10.dtd">
<svg version="1.0" xmlns="http://www.w3.org/2000/svg"
 width="1105.000000pt" height="240.000000pt" viewBox="0 0 1105.000000 240.000000"
 preserveAspectRatio="xMidYMid meet">

<g transform="translate(0.000000,240.000000) scale(0.100000,-0.100000)"
fill="#000000" stroke="none">
<path d="M6302 2114 c-27 -18 -30 -74 -6 -99 26 -26 95 -16 113 16 36 65 -43
128 -107 83z"/>
<path d="M9650 1530 l0 -600 54 0 54 0 4 303 c4 253 7 309 22 348 50 134 183
202 351 178 111 -15 165 -53 207 -144 22 -48 23 -61 26 -367 l3 -318 55 0 54
0 0 323 c0 358 -4 385 -63 474 -35 52 -107 106 -165 123 -72 21 -173 23 -242
6 -82 -21 -142 -56 -202 -119 l-48 -50 0 221 0 222 -55 0 -55 0 0 -600z"/>
<path d="M6790 1970 l0 -120 -105 0 -105 0 0 -50 0 -50 104 0 105 0 3 -322 c3
-313 4 -325 26 -374 29 -64 64 -99 122 -119 56 -20 162 -30 224 -21 l46 7 0
47 0 47 -97 0 c-116 0 -156 17 -188 80 -18 37 -20 64 -23 348 l-4 307 156 0
156 0 0 50 0 50 -155 0 -155 0 0 120 0 120 -55 0 -55 0 0 -120z"/>
<path d="M805 1864 c-186 -29 -306 -120 -339 -256 l-6 -28 118 0 119 0 24 38
c35 55 96 73 224 69 107 -4 142 -15 184 -61 19 -20 26 -40 29 -85 l4 -58 -113
5 c-63 2 -167 -1 -231 -7 -263 -26 -378 -102 -395 -263 -11 -113 38 -213 129
-259 162 -83 442 -53 571 61 l37 32 0 -61 0 -61 130 0 130 0 0 328 c0 369 -4
398 -66 470 -78 91 -191 131 -389 137 -71 2 -143 1 -160 -1z m355 -603 l0 -69
-46 -41 c-60 -52 -148 -81 -250 -81 -116 0 -171 33 -180 107 -8 67 34 115 123
139 29 7 109 13 201 13 l152 1 0 -69z"/>
<path d="M2132 1860 c-68 -14 -146 -54 -196 -100 l-46 -43 0 67 0 66 -130 0
-130 0 0 -460 0 -460 130 0 130 0 0 283 c0 166 4 298 11 320 24 89 106 139
225 140 91 0 154 -28 192 -86 l27 -40 3 -309 3 -308 130 0 130 0 -3 353 -3
352 -28 57 c-55 112 -155 167 -312 173 -49 2 -109 0 -133 -5z"/>
<path d="M3106 1854 c-244 -53 -376 -252 -339 -509 35 -244 215 -366 517 -353
125 6 194 27 258 78 l38 31 0 -73 c-1 -119 -48 -192 -143 -220 -58 -17 -250
-16 -310 1 -27 8 -65 29 -84 48 l-36 33 -113 0 c-112 0 -114 0 -114 -22 1 -68
81 -162 168 -199 99 -43 169 -53 347 -52 141 0 184 4 249 22 168 45 258 134
286 280 6 31 10 237 10 492 l0 439 -130 0 -130 0 0 -61 0 -61 -41 37 c-103 93
-262 125 -433 89z m315 -180 c73 -21 125 -58 157 -113 24 -41 27 -56 27 -141
0 -72 -4 -103 -18 -127 -53 -97 -165 -149 -305 -141 -184 11 -279 110 -275
284 3 125 63 200 188 240 56 18 161 17 226 -2z"/>
<path d="M4445 1864 c-11 -2 -45 -9 -75 -15 -86 -17 -193 -73 -251 -131 -171
-171 -170 -488 1 -656 200 -197 623 -200 830 -6 32 30 64 74 87 121 32 66 37
83 41 174 6 119 -8 190 -50 271 -54 101 -160 181 -298 222 -53 16 -244 30
-285 20z m249 -208 c102 -50 153 -153 144 -292 -12 -184 -133 -285 -328 -271
-88 6 -132 22 -184 67 -71 63 -104 175 -85 291 26 164 131 243 310 236 69 -2
97 -8 143 -31z"/>
<path d="M7714 1855 c-200 -43 -327 -179 -356 -383 -40 -276 105 -492 367
-547 251 -53 490 48 570 240 l15 35 -59 0 c-56 0 -59 -1 -71 -30 -20 -49 -111
-124 -171 -143 -254 -80 -499 44 -535 271 l-7 42 433 0 433 0 -6 88 c-9 141
-52 238 -140 319 -114 105 -296 147 -473 108z m217 -85 c152 -29 254 -134 283
-292 l7 -38 -377 0 -377 0 7 42 c33 208 229 331 457 288z"/>
<path d="M8832 1855 c-186 -41 -309 -162 -347 -342 -76 -356 155 -624 515
-599 194 14 336 99 401 241 49 107 49 105 -18 105 l-58 0 -19 -52 c-25 -70
-103 -148 -176 -175 -157 -59 -344 -28 -446 74 -134 134 -134 432 0 566 106
106 309 135 463 67 61 -27 139 -110 160 -170 l18 -50 58 0 c67 0 67 -2 18 105
-84 183 -329 282 -569 230z"/>
<path d="M5184 1833 c4 -10 96 -217 204 -461 l197 -442 63 2 63 3 163 365 c90
201 181 407 204 458 l41 92 -62 0 -63 0 -169 -381 c-93 -209 -172 -382 -176
-384 -4 -3 -83 167 -177 378 l-170 382 -62 3 c-57 3 -62 1 -56 -15z"/>
<path d="M6290 1390 l0 -460 55 0 55 0 0 460 0 460 -55 0 -55 0 0 -460z"/>
</g>
</svg>
